<svg width="24" height="24" viewBox="0 0 24 24" fill="none" xmlns="http://www.w3.org/2000/svg">
<path d="M2.6079 19.5422H2.09387V22H21.9237V19.5422H21.37M2.6079 19.5422V7.2598M2.6079 19.5422H21.37M2.6079 7.2598H2.5C2.22386 7.2598 2 7.03594 2 6.7598V5.16469C2 4.88854 2.22386 4.66469 2.5 4.66469H3.51607M2.6079 7.2598H21.37M21.37 19.5422V7.2598M21.37 7.2598H21.5C21.7761 7.2598 22 7.03594 22 6.7598V5.16469C22 4.88854 21.7761 4.66469 21.5 4.66469H20.4484M3.51607 4.66469V3.02634C3.51607 2.47405 3.96379 2.02634 4.51607 2.02634H6.46279C7.01384 2.02634 7.46105 2.47214 7.46278 3.02319L7.46795 4.66469M3.51607 4.66469H7.46795M7.46795 4.66469H16.5351M16.5351 4.66469V3C16.5351 2.44771 16.9828 2 17.5351 2H19.4484C20.0007 2 20.4484 2.44772 20.4484 3V4.66469M16.5351 4.66469H20.4484" stroke="black" stroke-width="0.5" stroke-linecap="round" stroke-linejoin="round"/>
<path d="M12.4804 10.62L12.0702 13.0982L12.0462 13.2436H12.1935H13.7925L11.6151 17.3622L11.9307 14.4882L11.9459 14.3496H11.8065H10.2218L12.4804 10.62Z" stroke="black" stroke-width="0.25"/>
<path d="M5.41096 3.99022V3.58121H5V3.409H5.41096V3H5.58904V3.409H6V3.58121H5.58904V3.99022H5.41096Z" fill="black"/>
<path d="M18 3.62431V3.29999H19V3.62431H18Z" fill="black"/>
</svg>
