<svg width="37" height="35" viewBox="0 0 37 35" fill="none" xmlns="http://www.w3.org/2000/svg">
<path d="M4.50166 10.2083C4.76804 9.77174 5.1495 9.4079 5.60882 9.15231C6.06815 8.89673 6.58966 8.75812 7.12249 8.75H26.8558L27.75 5.45417C27.8403 5.13601 28.0419 4.85617 28.3218 4.66021C28.6018 4.46425 28.9436 4.36372 29.2917 4.375H32.375C32.7839 4.375 33.176 4.52865 33.4651 4.80214C33.7542 5.07563 33.9167 5.44656 33.9167 5.83333C33.9167 6.22011 33.7542 6.59104 33.4651 6.86453C33.176 7.13802 32.7839 7.29167 32.375 7.29167H30.4633L26.2083 22.2542C26.118 22.5723 25.9164 22.8522 25.6365 23.0481C25.3565 23.2441 25.0147 23.3446 24.6667 23.3333H10.7917C10.507 23.3325 10.2281 23.2571 9.98588 23.1156C9.7437 22.974 9.54769 22.7718 9.41957 22.5313L4.36291 12.9646C4.14374 12.53 4.0417 12.0509 4.06591 11.57C4.09012 11.089 4.23983 10.6212 4.50166 10.2083Z" fill="white"/>
<path d="M25.4375 30.625C24.1603 30.625 23.125 29.6456 23.125 28.4375C23.125 27.2294 24.1603 26.25 25.4375 26.25C26.7147 26.25 27.75 27.2294 27.75 28.4375C27.75 29.6456 26.7147 30.625 25.4375 30.625Z" fill="white"/>
<path d="M10.0208 30.625C8.74369 30.625 7.70834 29.6456 7.70834 28.4375C7.70834 27.2294 8.74369 26.25 10.0208 26.25C11.298 26.25 12.3333 27.2294 12.3333 28.4375C12.3333 29.6456 11.298 30.625 10.0208 30.625Z" fill="white"/>
</svg>
