<svg width="24" height="24" viewBox="0 0 24 24" fill="none" xmlns="http://www.w3.org/2000/svg">
<path d="M10.47 9.28999L14.71 13.53L7.24 21H3V16.76L10.47 9.28999ZM20.41 6.40999L17.59 3.58999C17.497 3.49626 17.3864 3.42187 17.2646 3.3711C17.1427 3.32033 17.012 3.29419 16.88 3.29419C16.748 3.29419 16.6173 3.32033 16.4954 3.3711C16.3736 3.42187 16.263 3.49626 16.17 3.58999L13.29 6.46999L17.53 10.71L20.41 7.82999C20.5037 7.73702 20.5781 7.62642 20.6289 7.50456C20.6797 7.38271 20.7058 7.252 20.7058 7.11999C20.7058 6.98798 20.6797 6.85727 20.6289 6.73541C20.5781 6.61355 20.5037 6.50295 20.41 6.40999V6.40999Z" stroke="black" stroke-width="2" stroke-linecap="round" stroke-linejoin="round"/>
</svg>
