<?xml version="1.0" encoding="UTF-8"?>
<svg xmlns="http://www.w3.org/2000/svg" xmlns:xlink="http://www.w3.org/1999/xlink" width="27px" height="27px" viewBox="0 0 27 27" version="1.1">
<g id="surface1">
<path style=" stroke:none;fill-rule:nonzero;fill:rgb(55.294118%,60%,67.843137%);fill-opacity:1;" d="M 14.34375 20.25 L 17.71875 20.25 L 17.71875 23.625 L 14.34375 23.625 Z M 20.25 20.25 L 23.625 20.25 L 23.625 23.625 L 20.25 23.625 Z M 14.34375 14.34375 L 17.71875 14.34375 L 17.71875 17.71875 L 14.34375 17.71875 Z M 20.25 14.34375 L 23.625 14.34375 L 23.625 17.71875 L 20.25 17.71875 Z M 20.25 14.34375 "/>
<path style=" stroke:none;fill-rule:nonzero;fill:rgb(55.294118%,60%,67.843137%);fill-opacity:1;" d="M 23.625 9.28125 L 18.5625 9.28125 L 18.5625 5.90625 C 18.5625 4.472656 17.464844 3.375 16.03125 3.375 L 10.96875 3.375 C 9.535156 3.375 8.4375 4.472656 8.4375 5.90625 L 8.4375 9.28125 L 3.375 9.28125 C 2.867188 9.28125 2.53125 9.617188 2.53125 10.125 L 2.53125 10.292969 L 4.132812 20.503906 C 4.21875 21.347656 4.976562 21.9375 5.820312 21.9375 L 12.65625 21.9375 L 12.65625 20.25 L 5.820312 20.25 L 4.386719 10.96875 L 23.625 10.96875 Z M 10.125 5.90625 C 10.125 5.398438 10.460938 5.0625 10.96875 5.0625 L 16.03125 5.0625 C 16.539062 5.0625 16.875 5.398438 16.875 5.90625 L 16.875 9.28125 L 10.125 9.28125 Z M 10.125 5.90625 "/>
</g>
</svg>
