<svg width="32" height="32" viewBox="0 0 32 32" fill="none" xmlns="http://www.w3.org/2000/svg">
<path d="M28 25.3333V16.356C28 15.6326 27.8528 14.9168 27.5675 14.252C27.2821 13.5873 26.8645 12.9876 26.34 12.4893L17.8373 4.41334C17.3417 3.94252 16.6843 3.68 16.0007 3.68C15.3171 3.68 14.6596 3.94252 14.164 4.41334L5.66 12.4893C5.13554 12.9876 4.71791 13.5873 4.43254 14.252C4.14716 14.9168 4 15.6326 4 16.356V25.3333C4 26.0406 4.28095 26.7189 4.78105 27.219C5.28115 27.719 5.95942 28 6.66667 28H25.3333C26.0406 28 26.7189 27.719 27.219 27.219C27.719 26.7189 28 26.0406 28 25.3333Z" stroke="#8D99AD" stroke-width="2" stroke-linecap="round" stroke-linejoin="round"/>
</svg>
