<svg width="27" height="6" viewBox="0 0 27 6" fill="none" xmlns="http://www.w3.org/2000/svg">
<path d="M23.6398 6C21.9911 6 20.6545 4.65685 20.6545 3C20.6545 1.34315 21.9911 0 23.6398 0C25.2885 0 26.625 1.34315 26.625 3C26.625 4.65685 25.2885 6 23.6398 6Z" fill="#EC2741"/>
<path d="M13.3126 6C11.6639 6 10.3274 4.65685 10.3274 3C10.3274 1.34315 11.6639 0 13.3126 0C14.9613 0 16.2979 1.34315 16.2979 3C16.2979 4.65685 14.9613 6 13.3126 6Z" fill="#EC2741"/>
<path d="M2.98523 6C1.33654 6 4.76837e-06 4.65685 4.76837e-06 3C4.76837e-06 1.34315 1.33654 0 2.98523 0C4.63393 0 5.97046 1.34315 5.97046 3C5.97046 4.65685 4.63393 6 2.98523 6Z" fill="#EC2741"/>
</svg>
