<svg width="37" height="35" viewBox="0 0 37 35" fill="none" xmlns="http://www.w3.org/2000/svg">
<path d="M4.50163 10.2083C4.76801 9.77174 5.14947 9.4079 5.60879 9.15231C6.06812 8.89673 6.58963 8.75812 7.12246 8.75H26.8558L27.75 5.45417C27.8403 5.13601 28.0419 4.85617 28.3218 4.66021C28.6017 4.46425 28.9436 4.36372 29.2916 4.375H32.375C32.7838 4.375 33.176 4.52865 33.4651 4.80214C33.7542 5.07563 33.9166 5.44656 33.9166 5.83333C33.9166 6.22011 33.7542 6.59104 33.4651 6.86453C33.176 7.13802 32.7838 7.29167 32.375 7.29167H30.4633L26.2083 22.2542C26.118 22.5723 25.9164 22.8522 25.6365 23.0481C25.3565 23.2441 25.0147 23.3446 24.6666 23.3333H10.7916C10.5069 23.3325 10.228 23.2571 9.98585 23.1156C9.74367 22.974 9.54766 22.7718 9.41954 22.5313L4.36288 12.9646C4.14371 12.53 4.04167 12.0509 4.06588 11.57C4.09009 11.089 4.2398 10.6212 4.50163 10.2083Z" fill="#8D99AD"/>
<path d="M25.4375 30.625C24.1603 30.625 23.125 29.6456 23.125 28.4375C23.125 27.2294 24.1603 26.25 25.4375 26.25C26.7147 26.25 27.75 27.2294 27.75 28.4375C27.75 29.6456 26.7147 30.625 25.4375 30.625Z" fill="#8D99AD"/>
<path d="M10.0209 30.625C8.74372 30.625 7.70837 29.6456 7.70837 28.4375C7.70837 27.2294 8.74372 26.25 10.0209 26.25C11.298 26.25 12.3334 27.2294 12.3334 28.4375C12.3334 29.6456 11.298 30.625 10.0209 30.625Z" fill="#8D99AD"/>
</svg>
