<svg width="70" height="70" viewBox="0 0 70 70" fill="none" xmlns="http://www.w3.org/2000/svg">
<path fill-rule="evenodd" clip-rule="evenodd" d="M43.7254 29.5058C44.5964 29.5058 45.4318 29.1599 46.0477 28.5442C46.6637 27.9284 47.0097 27.0933 47.0097 26.2225C47.0097 25.3517 46.6637 24.5166 46.0477 23.9009C45.4318 23.2851 44.5964 22.9392 43.7254 22.9392C42.8543 22.9392 42.0189 23.2851 41.403 23.9009C40.7871 24.5166 40.441 25.3517 40.441 26.2225C40.441 27.0933 40.7871 27.9284 41.403 28.5442C42.0189 29.1599 42.8543 29.5058 43.7254 29.5058Z" fill="#FFFFFE"/>
<mask id="mask0_14_822" style="mask-type:alpha" maskUnits="userSpaceOnUse" x="0" y="0" width="70" height="70">
<path d="M0 70H70V0H0V70Z" fill="white"/>
</mask>
<g mask="url(#mask0_14_822)">
<path fill-rule="evenodd" clip-rule="evenodd" d="M52.4836 26.2226V43.3154C51.7829 42.2035 50.7998 40.7293 49.855 39.6141C48.5676 38.0961 46.6452 37.666 44.968 39.532L41.9551 42.4246L35.3876 34.0751C32.9418 30.9658 28.9393 30.9658 26.4936 34.0751L17.4508 45.3642V17.4671H52.4836V26.2226ZM52.4836 13.0894H17.4508C16.2893 13.0894 15.1755 13.5506 14.3543 14.3716C13.533 15.1925 13.0717 16.306 13.0717 17.4671V52.489C13.0717 53.65 13.533 54.7635 14.3543 55.5845C15.1755 56.4055 16.2893 56.8667 17.4508 56.8667H52.4836C53.645 56.8667 54.7589 56.4055 55.5801 55.5845C56.4013 54.7635 56.8627 53.65 56.8627 52.489V17.4671C56.8627 16.306 56.4013 15.1925 55.5801 14.3716C54.7589 13.5506 53.645 13.0894 52.4836 13.0894Z" fill="#FFFFFE"/>
<path fill-rule="evenodd" clip-rule="evenodd" d="M56.8627 26.2226V52.489C56.8627 53.6501 56.4013 54.7635 55.5801 55.5845C54.7588 56.4055 53.645 56.8667 52.4836 56.8667H17.4507C16.2893 56.8667 15.1755 56.4055 14.3543 55.5845C13.533 54.7635 13.0716 53.6501 13.0716 52.489V17.4671C13.0716 16.3061 13.533 15.1926 14.3543 14.3716C15.1755 13.5506 16.2893 13.0894 17.4507 13.0894H52.4836C53.645 13.0894 54.7588 13.5506 55.5801 14.3716C56.4013 15.1926 56.8627 16.3061 56.8627 17.4671V26.2226ZM34.9672 -0.0438232C15.6192 -0.0438232 -0.0656738 15.6361 -0.0656738 34.9781C-0.0656738 54.32 15.6192 70 34.9672 70C54.3152 70 70 54.32 70 34.9781C70 15.6361 54.3152 -0.0438232 34.9672 -0.0438232Z" fill="#4C5665"/>
<path fill-rule="evenodd" clip-rule="evenodd" d="M43.7253 22.9393C44.5964 22.9393 45.4318 23.2853 46.0477 23.901C46.6636 24.5167 47.0096 25.3518 47.0096 26.2226C47.0096 27.0934 46.6636 27.9285 46.0477 28.5443C45.4318 29.16 44.5964 29.5059 43.7253 29.5059C42.8543 29.5059 42.0189 29.16 41.4029 28.5443C40.787 27.9285 40.441 27.0934 40.441 26.2226C40.441 25.3518 40.787 24.5167 41.4029 23.901C42.0189 23.2853 42.8543 22.9393 43.7253 22.9393ZM17.4507 26.2226V45.3643L26.4935 34.0752C28.9393 30.9659 32.9418 30.9659 35.3875 34.0752L41.9551 42.4246L44.9679 39.532C46.6451 37.666 48.5675 38.0961 49.855 39.6141C50.7998 40.7294 51.7829 42.2036 52.4835 43.3155V17.4672H17.4507V26.2226Z" fill="#4C5665"/>
</g>
</svg>
